<svg width="24" height="24" viewBox="0 0 24 24" fill="none" xmlns="http://www.w3.org/2000/svg">
<path d="M5.19001 6.38C5.00001 6.38 4.8 6.3 4.66 6.16C4.37 5.87 4.37 5.39 4.66 5.1L8.29 1.47C8.58001 1.18 9.06001 1.18 9.35001 1.47C9.64001 1.76 9.64001 2.24 9.35001 2.53L5.72 6.16C5.57 6.3 5.38001 6.38 5.19001 6.38Z" fill="#292D32"/>
<path d="M18.81 6.38C18.62 6.38 18.43 6.31 18.28 6.16L14.65 2.53C14.36 2.24 14.36 1.76 14.65 1.47C14.94 1.18 15.42 1.18 15.71 1.47L19.34 5.1C19.63 5.39 19.63 5.87 19.34 6.16C19.2 6.3 19 6.38 18.81 6.38Z" fill="#292D32"/>
<path d="M20.21 10.6C20.14 10.6 20.07 10.6 20 10.6H19.77H4C3.3 10.61 2.5 10.61 1.92 10.03C1.46 9.58001 1.25 8.88001 1.25 7.85001C1.25 5.10001 3.26 5.10001 4.22 5.10001H19.78C20.74 5.10001 22.75 5.10001 22.75 7.85001C22.75 8.89001 22.54 9.58001 22.08 10.03C21.56 10.55 20.86 10.6 20.21 10.6ZM4.22 9.10001H20.01C20.46 9.11001 20.88 9.11001 21.02 8.97001C21.09 8.90001 21.24 8.66001 21.24 7.85001C21.24 6.72001 20.96 6.60001 19.77 6.60001H4.22C3.03 6.60001 2.75 6.72001 2.75 7.85001C2.75 8.66001 2.91 8.90001 2.97 8.97001C3.11 9.10001 3.54 9.10001 3.98 9.10001H4.22Z" fill="#292D32"/>
<path d="M9.76001 18.3C9.35001 18.3 9.01001 17.96 9.01001 17.55V14C9.01001 13.59 9.35001 13.25 9.76001 13.25C10.17 13.25 10.51 13.59 10.51 14V17.55C10.51 17.97 10.17 18.3 9.76001 18.3Z" fill="#292D32"/>
<path d="M14.36 18.3C13.95 18.3 13.61 17.96 13.61 17.55V14C13.61 13.59 13.95 13.25 14.36 13.25C14.77 13.25 15.11 13.59 15.11 14V17.55C15.11 17.97 14.77 18.3 14.36 18.3Z" fill="#292D32"/>
<path d="M14.89 22.75H8.86C5.28 22.75 4.48 20.62 4.17 18.77L2.76 10.12C2.69 9.71 2.97 9.33 3.38 9.26C3.79 9.19 4.17 9.47 4.24 9.88L5.65 18.52C5.94 20.29 6.54 21.25 8.86 21.25H14.89C17.46 21.25 17.75 20.35 18.08 18.61L19.76 9.86C19.84 9.45 20.23 9.18 20.64 9.27C21.05 9.35 21.31 9.74 21.23 10.15L19.55 18.9C19.16 20.93 18.51 22.75 14.89 22.75Z" fill="#292D32"/>
</svg>
