<svg width="24" height="24" viewBox="0 0 24 24" fill="none" xmlns="http://www.w3.org/2000/svg">
<path d="M5.53999 19.52C4.92999 19.52 4.35999 19.31 3.94999 18.92C3.42999 18.43 3.17999 17.69 3.26999 16.89L3.63999 13.65C3.70999 13.04 4.07999 12.23 4.50999 11.79L12.72 3.09999C14.77 0.929988 16.91 0.869988 19.08 2.91999C21.25 4.96999 21.31 7.10999 19.26 9.27999L11.05 17.97C10.63 18.42 9.84999 18.84 9.23999 18.94L6.01999 19.49C5.84999 19.5 5.69999 19.52 5.53999 19.52ZM15.93 2.90999C15.16 2.90999 14.49 3.38999 13.81 4.10999L5.59999 12.81C5.39999 13.02 5.16999 13.52 5.12999 13.81L4.75999 17.05C4.71999 17.38 4.79999 17.65 4.97999 17.82C5.15999 17.99 5.42999 18.05 5.75999 18L8.97999 17.45C9.26999 17.4 9.74999 17.14 9.94999 16.93L18.16 8.23999C19.4 6.91999 19.85 5.69999 18.04 3.99999C17.24 3.22999 16.55 2.90999 15.93 2.90999Z" fill="#292D32"/>
<path d="M17.34 10.95C17.32 10.95 17.29 10.95 17.27 10.95C14.15 10.64 11.64 8.27 11.16 5.17C11.1 4.76 11.38 4.38 11.79 4.31C12.2 4.25 12.58 4.53 12.65 4.94C13.03 7.36 14.99 9.22 17.43 9.46C17.84 9.5 18.14 9.87 18.1 10.28C18.05 10.66 17.72 10.95 17.34 10.95Z" fill="#292D32"/>
<path d="M21 22.75H3C2.59 22.75 2.25 22.41 2.25 22C2.25 21.59 2.59 21.25 3 21.25H21C21.41 21.25 21.75 21.59 21.75 22C21.75 22.41 21.41 22.75 21 22.75Z" fill="#292D32"/>
</svg>
