<svg width="24" height="24" viewBox="0 0 24 24" fill="none" xmlns="http://www.w3.org/2000/svg">
<path d="M12 22.75C6.07 22.75 1.25 17.93 1.25 12C1.25 6.07 6.07 1.25 12 1.25C17.93 1.25 22.75 6.07 22.75 12C22.75 17.93 17.93 22.75 12 22.75ZM12 2.75C6.9 2.75 2.75 6.9 2.75 12C2.75 17.1 6.9 21.25 12 21.25C17.1 21.25 21.25 17.1 21.25 12C21.25 6.9 17.1 2.75 12 2.75Z" fill="#292D32"/>
<path d="M16.4444 12.5556H7.55556C7.25185 12.5556 7 12.3037 7 12C7 11.6963 7.25185 11.4445 7.55556 11.4445H16.4444C16.7481 11.4445 17 11.6963 17 12C17 12.3037 16.7481 12.5556 16.4444 12.5556Z" fill="#292D32"/>
</svg>
