<svg width="178" height="34" viewBox="0 0 178 34" fill="none" xmlns="http://www.w3.org/2000/svg">
<path d="M18.0933 30.84C17.7866 30.84 17.4799 30.7867 17.1866 30.68C16.1866 30.3067 15.5466 29.3733 15.5466 28.3067V19.7067H12.4266C11.4133 19.7067 10.5332 19.1333 10.1199 18.2133C9.70657 17.2933 9.86657 16.2533 10.5332 15.4933L20.6266 4.02667C21.3332 3.22667 22.4266 2.94667 23.4266 3.33334C24.4266 3.70667 25.0666 4.64 25.0666 5.70667V14.3067H28.1866C29.1999 14.3067 30.0799 14.88 30.4932 15.8C30.9066 16.72 30.7466 17.76 30.0799 18.52L19.9866 29.9867C19.4932 30.5467 18.7999 30.84 18.0933 30.84ZM22.5066 5.16C22.3866 5.16 22.2399 5.2 22.1199 5.34667L12.0266 16.8267C11.8132 17.0667 11.8933 17.3067 11.9333 17.4C11.9733 17.4933 12.1066 17.72 12.4266 17.72H16.5466C17.0932 17.72 17.5466 18.1733 17.5466 18.72V28.32C17.5466 28.6533 17.7866 28.7867 17.8933 28.8267C17.9999 28.8667 18.2666 28.9333 18.4799 28.68L28.5732 17.2C28.7866 16.96 28.7066 16.72 28.6666 16.6267C28.6266 16.5333 28.4932 16.3067 28.1732 16.3067H24.0533C23.5066 16.3067 23.0533 15.8533 23.0533 15.3067V5.70667C23.0533 5.37334 22.8132 5.24 22.7066 5.2C22.6666 5.17334 22.5866 5.16 22.5066 5.16Z" fill="#292D32"/>
<path d="M11.3333 7.33334H2C1.45333 7.33334 1 6.88001 1 6.33334C1 5.78668 1.45333 5.33334 2 5.33334H11.3333C11.88 5.33334 12.3333 5.78668 12.3333 6.33334C12.3333 6.88001 11.88 7.33334 11.3333 7.33334Z" fill="#292D32"/>
<path d="M10 28.6667H2C1.45333 28.6667 1 28.2133 1 27.6667C1 27.12 1.45333 26.6667 2 26.6667H10C10.5467 26.6667 11 27.12 11 27.6667C11 28.2133 10.5467 28.6667 10 28.6667Z" fill="#292D32"/>
<path d="M6 18H2C1.45333 18 1 17.5467 1 17C1 16.4533 1.45333 16 2 16H6C6.54667 16 7 16.4533 7 17C7 17.5467 6.54667 18 6 18Z" fill="#292D32"/>
<path d="M45.4297 8.32812C45.2422 8.39062 45.1016 8.39844 45.0078 8.35156C44.9141 8.30469 44.8438 8.22656 44.7969 8.11719C44.75 8.00781 44.7266 7.89063 44.7266 7.76562C44.7266 7.625 44.7344 7.49219 44.75 7.36719C44.7656 7.25781 44.7891 7.13281 44.8203 6.99219C44.8672 6.85156 44.9219 6.71875 44.9844 6.59375C45.0469 6.46875 45.1172 6.36719 45.1953 6.28906C45.2891 6.19531 45.4062 6.13281 45.5469 6.10156C46.2656 5.97656 46.9609 5.88281 47.6328 5.82031C48.3203 5.75781 48.9375 5.71094 49.4844 5.67969C50.1094 5.63281 50.7109 5.60938 51.2891 5.60938C51.4141 5.60938 51.5391 5.61719 51.6641 5.63281C51.7891 5.63281 51.9141 5.63281 52.0391 5.63281C52.1797 5.60156 52.2891 5.59375 52.3672 5.60938C52.4609 5.60938 52.5391 5.61719 52.6016 5.63281C53.0547 5.64844 53.5234 5.67187 54.0078 5.70312C54.4141 5.73438 54.8672 5.77344 55.3672 5.82031C55.8828 5.85156 56.3906 5.89844 56.8906 5.96094C56.9375 6.08594 56.9453 6.24219 56.9141 6.42969C56.8984 6.52344 56.8828 6.61719 56.8672 6.71094C56.8516 6.80469 56.8125 6.89062 56.75 6.96875C56.7031 7.04688 56.6406 7.125 56.5625 7.20312C56.5 7.26562 56.4219 7.32031 56.3281 7.36719C55.7969 7.35156 55.2812 7.34375 54.7812 7.34375C54.2969 7.32813 53.8672 7.32031 53.4922 7.32031H52.2266C52.0234 8.03906 51.7734 8.92969 51.4766 9.99219C51.1797 11.0391 50.875 12.1484 50.5625 13.3203C50.2656 14.4766 49.9766 15.6328 49.6953 16.7891C49.4297 17.9297 49.2188 18.9609 49.0625 19.8828C48.9062 20.7734 48.75 21.6484 48.5938 22.5078C48.5312 22.8672 48.4609 23.2422 48.3828 23.6328C48.3203 24.0234 48.2578 24.4062 48.1953 24.7812C48.1484 25.1562 48.1016 25.5156 48.0547 25.8594C48.0078 26.2031 47.9688 26.5156 47.9375 26.7969C47.6875 26.9219 47.4531 27.0156 47.2344 27.0781C47.0156 27.1562 46.8203 27.2109 46.6484 27.2422C46.4453 27.2891 46.2578 27.3125 46.0859 27.3125C45.7109 27.3125 45.4766 27.2656 45.3828 27.1719C45.3047 27.0938 45.2969 26.9297 45.3594 26.6797C45.4062 26.4609 45.5469 25.8672 45.7812 24.8984C45.875 24.4922 45.9922 23.9766 46.1328 23.3516C46.2891 22.7422 46.4688 22 46.6719 21.125C46.875 20.2344 47.1172 19.2031 47.3984 18.0312C47.6797 16.8438 48 15.4844 48.3594 13.9531L49.9297 7.4375C49.4609 7.5 49 7.57031 48.5469 7.64844C48.0938 7.72656 47.6641 7.8125 47.2578 7.90625C46.8672 7.98438 46.5078 8.0625 46.1797 8.14062C45.8672 8.21875 45.6172 8.28125 45.4297 8.32812ZM57.0781 23.375C56.4844 23.375 56 23.2812 55.625 23.0938C55.25 22.9062 54.9531 22.6797 54.7344 22.4141C54.5312 22.1328 54.3828 21.8359 54.2891 21.5234C54.2109 21.1953 54.1719 20.8984 54.1719 20.6328C54.1719 20.1641 54.2109 19.6719 54.2891 19.1562C54.3672 18.625 54.4609 18.1406 54.5703 17.7031C54.6797 17.25 54.7734 16.8672 54.8516 16.5547C54.9453 16.2422 55.0078 16.0469 55.0391 15.9688C55.1797 15.5156 55.3594 15.125 55.5781 14.7969C55.8125 14.4531 56.1328 14.2188 56.5391 14.0938C56.6953 14.0625 56.8594 14.0312 57.0312 14C57.1719 13.9844 57.3125 13.9766 57.4531 13.9766C57.6094 13.9766 57.75 14 57.875 14.0469C57.4531 15.125 57.1172 16.0234 56.8672 16.7422C56.6328 17.4609 56.4531 18.0469 56.3281 18.5C56.1875 19.0156 56.1016 19.4297 56.0703 19.7422C55.9922 20.4453 56.0547 20.9766 56.2578 21.3359C56.4609 21.6953 56.875 21.875 57.5 21.875C57.9062 21.875 58.2969 21.7266 58.6719 21.4297C59.0469 21.1172 59.3906 20.7188 59.7031 20.2344C59.6562 19.9844 59.6328 19.7266 59.6328 19.4609C59.6328 18.9609 59.6719 18.4766 59.75 18.0078C59.8438 17.5234 59.9453 17.0781 60.0547 16.6719C60.1797 16.25 60.3047 15.875 60.4297 15.5469C60.5703 15.2188 60.6875 14.9609 60.7812 14.7734C60.9531 14.3984 61.1094 14.1719 61.25 14.0938C61.3906 14 61.6172 13.9453 61.9297 13.9297C62.0547 13.9141 62.1562 13.9141 62.2344 13.9297C62.3281 13.9297 62.4062 13.9375 62.4688 13.9531C62.6562 14 62.75 14.0938 62.75 14.2344C62.75 14.4844 62.7344 14.8594 62.7031 15.3594C62.6719 15.8594 62.5781 16.375 62.4219 16.9062C62.3125 17.3438 62.2031 17.7188 62.0938 18.0312C62 18.3281 61.9062 18.5859 61.8125 18.8047C61.7188 19.0078 61.625 19.1797 61.5312 19.3203C61.4375 19.4453 61.3516 19.5625 61.2734 19.6719C61.3047 20.1406 61.3438 20.5156 61.3906 20.7969C61.4375 21.0781 61.4922 21.2969 61.5547 21.4531C61.6328 21.5938 61.7188 21.6953 61.8125 21.7578C61.9219 21.8047 62.0391 21.8281 62.1641 21.8281C62.3828 21.8281 62.6406 21.7266 62.9375 21.5234C63.2344 21.3047 63.5391 21.0391 63.8516 20.7266C64.1797 20.3984 64.5 20.0469 64.8125 19.6719C65.1406 19.2812 65.4375 18.9141 65.7031 18.5703C65.9688 18.2266 66.1953 17.9297 66.3828 17.6797C66.5703 17.4141 66.6875 17.25 66.7344 17.1875C66.8438 17.0469 66.9453 16.9609 67.0391 16.9297C67.1484 16.8984 67.2344 16.9141 67.2969 16.9766C67.3594 17.0234 67.3906 17.1094 67.3906 17.2344C67.4062 17.3438 67.375 17.4688 67.2969 17.6094C66.9844 18.2031 66.5938 18.8359 66.125 19.5078C65.6719 20.1641 65.1797 20.7734 64.6484 21.3359C64.1328 21.8984 63.6094 22.3672 63.0781 22.7422C62.5469 23.1172 62.0469 23.3047 61.5781 23.3047C61.1562 23.3047 60.8203 23.1641 60.5703 22.8828C60.3359 22.5859 60.1328 22.1641 59.9609 21.6172C59.6016 22.1797 59.1797 22.6172 58.6953 22.9297C58.2109 23.2266 57.6719 23.375 57.0781 23.375ZM64.5312 22.8828C64.4219 23.0547 64.3047 23.1641 64.1797 23.2109C64.0391 23.2734 63.9219 23.2812 63.8281 23.2344C63.7188 23.2031 63.6484 23.125 63.6172 23C63.5859 22.875 63.6172 22.7188 63.7109 22.5312C63.7578 22.4375 63.8672 22.2266 64.0391 21.8984C64.1953 21.5703 64.3906 21.1797 64.625 20.7266C64.8438 20.2578 65.0859 19.7578 65.3516 19.2266C65.6172 18.6797 65.8672 18.1641 66.1016 17.6797C66.3516 17.1953 66.5781 16.7656 66.7812 16.3906C66.9844 16 67.1328 15.7188 67.2266 15.5469C67.0547 15.3906 66.9375 15.2812 66.875 15.2188C66.8125 15.1406 66.7656 14.9844 66.7344 14.75C66.7031 14.5469 66.75 14.2812 66.875 13.9531C67 13.625 67.1641 13.3125 67.3672 13.0156C67.5703 12.7031 67.7969 12.4375 68.0469 12.2188C68.2969 12 68.5391 11.8906 68.7734 11.8906C69.2109 11.8906 69.5156 12.0312 69.6875 12.3125C69.875 12.5938 69.9844 12.8828 70.0156 13.1797C70.0469 13.3828 70.0312 13.6406 69.9688 13.9531C69.9062 14.2656 69.7891 14.5469 69.6172 14.7969C69.6641 14.8281 69.7266 14.8672 69.8047 14.9141C69.8828 14.9453 70.0078 14.9609 70.1797 14.9609C70.4297 14.9609 70.6016 14.9453 70.6953 14.9141C70.8047 14.8828 70.9688 14.8672 71.1875 14.8672C71.4531 14.8672 71.6719 14.9375 71.8438 15.0781C72.0156 15.2031 72.1562 15.3672 72.2656 15.5703C72.375 15.7578 72.4531 15.9688 72.5 16.2031C72.5625 16.4219 72.6016 16.625 72.6172 16.8125C72.6641 17.2031 72.5625 17.6094 72.3125 18.0312C72.0625 18.4531 71.7578 18.9141 71.3984 19.4141C71.1797 19.7266 70.9609 20.0781 70.7422 20.4688C70.5234 20.8594 70.4297 21.2109 70.4609 21.5234C70.4922 21.7266 70.5469 21.8906 70.625 22.0156C70.7031 22.1406 70.9219 22.2031 71.2812 22.2031C71.5469 22.2031 71.8359 22.1094 72.1484 21.9219C72.4766 21.7188 72.8047 21.4688 73.1328 21.1719C73.4766 20.8594 73.8125 20.5234 74.1406 20.1641C74.4688 19.7891 74.7734 19.4297 75.0547 19.0859C75.3359 18.7266 75.5703 18.4062 75.7578 18.125C75.9609 17.8438 76.1094 17.6406 76.2031 17.5156C76.2812 17.3906 76.3828 17.3047 76.5078 17.2578C76.6328 17.2109 76.7422 17.2109 76.8359 17.2578C76.9297 17.3047 76.9844 17.3984 77 17.5391C77.0312 17.6797 76.9766 17.8672 76.8359 18.1016C76.7422 18.2578 76.5781 18.5078 76.3438 18.8516C76.125 19.1953 75.8516 19.5781 75.5234 20C75.2109 20.4219 74.8594 20.8594 74.4688 21.3125C74.0781 21.75 73.6641 22.1562 73.2266 22.5312C72.8047 22.8906 72.375 23.1875 71.9375 23.4219C71.5156 23.6562 71.1094 23.7734 70.7188 23.7734C70.3125 23.7734 69.9766 23.6953 69.7109 23.5391C69.4453 23.3828 69.2266 23.1953 69.0547 22.9766C68.8984 22.7422 68.7812 22.4922 68.7031 22.2266C68.6406 21.9453 68.6172 21.6875 68.6328 21.4531C68.6484 21.2656 68.6953 21.0703 68.7734 20.8672C68.8672 20.6484 68.9688 20.4297 69.0781 20.2109C69.2031 19.9766 69.3281 19.75 69.4531 19.5312C69.5938 19.2969 69.7188 19.0703 69.8281 18.8516C70.0938 18.3984 70.3047 18.0156 70.4609 17.7031C70.6328 17.375 70.7188 17.1016 70.7188 16.8828C70.7188 16.7422 70.6875 16.6172 70.625 16.5078C70.5625 16.3984 70.4609 16.3438 70.3203 16.3438C70.2266 16.3438 70.1562 16.3516 70.1094 16.3672C70.0781 16.3672 70.0391 16.3672 69.9922 16.3672C69.9609 16.3672 69.9062 16.375 69.8281 16.3906C69.7656 16.3906 69.6641 16.3906 69.5234 16.3906C69.3203 16.3906 69.1484 16.3594 69.0078 16.2969C68.8672 16.2344 68.7344 16.1875 68.6094 16.1562C68.5469 16.2656 68.4062 16.5 68.1875 16.8594C67.9688 17.2188 67.7109 17.6406 67.4141 18.125C67.1328 18.6094 66.8281 19.1172 66.5 19.6484C66.1875 20.1797 65.8906 20.6797 65.6094 21.1484C65.3281 21.6016 65.0938 21.9922 64.9062 22.3203C64.7031 22.6328 64.5781 22.8203 64.5312 22.8828ZM80.5391 9.57031C80.3047 10.5078 80.0391 11.4062 79.7422 12.2656C79.4609 13.1094 79.1641 13.9062 78.8516 14.6562C78.5547 15.3906 78.25 16.0625 77.9375 16.6719C77.6406 17.2812 77.375 17.8125 77.1406 18.2656C76.9844 19.3906 76.9844 20.2969 77.1406 20.9844C77.2969 21.6719 77.6016 22.0156 78.0547 22.0156C78.4297 22.0156 78.7969 21.8438 79.1562 21.5C79.5156 21.1562 79.8359 20.7344 80.1172 20.2344C80.3984 19.7344 80.6328 19.2031 80.8203 18.6406C81.0234 18.0625 81.1484 17.5469 81.1953 17.0938C80.8984 17.0156 80.6484 16.8828 80.4453 16.6953C80.2422 16.4922 80.1406 16.2266 80.1406 15.8984C80.1406 15.6797 80.2031 15.4766 80.3281 15.2891C80.4531 15.0859 80.6016 14.9141 80.7734 14.7734C80.9453 14.6328 81.1328 14.5234 81.3359 14.4453C81.5391 14.3672 81.7266 14.3281 81.8984 14.3281C82.1641 14.3281 82.3906 14.5 82.5781 14.8438C82.7656 15.1719 82.8906 15.5938 82.9531 16.1094C83.5781 16.0938 84.2344 16 84.9219 15.8281C85.6094 15.6562 86.2578 15.4375 86.8672 15.1719C87.0391 15.0938 87.1797 15.0703 87.2891 15.1016C87.3984 15.1328 87.4688 15.1953 87.5 15.2891C87.5469 15.3828 87.5469 15.4922 87.5 15.6172C87.4531 15.7266 87.3594 15.8125 87.2188 15.875C86.8594 16.0781 86.4844 16.2656 86.0938 16.4375C85.7188 16.5938 85.3438 16.7266 84.9688 16.8359C84.5938 16.9453 84.2344 17.0312 83.8906 17.0938C83.5469 17.1562 83.2344 17.1875 82.9531 17.1875C82.8906 17.8125 82.6953 18.4922 82.3672 19.2266C82.0391 19.9453 81.6406 20.6172 81.1719 21.2422C80.7031 21.8516 80.1797 22.3594 79.6016 22.7656C79.0391 23.1719 78.4844 23.375 77.9375 23.375C77.7656 23.375 77.5391 23.3516 77.2578 23.3047C76.9766 23.2578 76.7031 23.0938 76.4375 22.8125C76.1719 22.5312 75.9453 22.0859 75.7578 21.4766C75.5703 20.8516 75.4922 19.9688 75.5234 18.8281C75.5391 18.0625 75.625 17.25 75.7812 16.3906C75.9375 15.5312 76.125 14.6719 76.3438 13.8125C76.5625 12.9531 76.8047 12.125 77.0703 11.3281C77.3516 10.5156 77.6172 9.78906 77.8672 9.14844C78.1172 8.49219 78.3438 7.94531 78.5469 7.50781C78.7656 7.07031 78.9297 6.78906 79.0391 6.66406C79.1797 6.49219 79.3438 6.36719 79.5312 6.28906C79.7188 6.19531 79.8984 6.13281 80.0703 6.10156C80.2578 6.05469 80.4297 6.03906 80.5859 6.05469C80.7422 6.07031 80.8516 6.09375 80.9141 6.125C81.0078 6.1875 81.0312 6.53125 80.9844 7.15625C80.9531 7.78125 80.8047 8.58594 80.5391 9.57031ZM92.0703 19.2734C91.9141 19.8672 91.7031 20.4219 91.4375 20.9375C91.1719 21.4531 90.8516 21.8984 90.4766 22.2734C90.1172 22.6484 89.7031 22.9375 89.2344 23.1406C88.7812 23.3594 88.2812 23.4688 87.7344 23.4688C87.0938 23.4688 86.5859 23.3281 86.2109 23.0469C85.8516 22.7812 85.5781 22.4453 85.3906 22.0391C85.2188 21.6328 85.1172 21.1875 85.0859 20.7031C85.0391 20.2188 85.0156 19.7656 85.0156 19.3438C85.0156 19.0469 85.0547 18.7188 85.1328 18.3594C85.1953 18 85.2891 17.6328 85.4141 17.2578C85.5391 16.8828 85.6953 16.5078 85.8828 16.1328C86.0859 15.7578 86.3203 15.4141 86.5859 15.1016C86.6797 14.8359 86.8203 14.6016 87.0078 14.3984C87.2109 14.1953 87.4375 14.0312 87.6875 13.9062C87.9531 13.7656 88.2344 13.6641 88.5312 13.6016C88.8281 13.5234 89.1172 13.4844 89.3984 13.4844C89.4453 13.4844 89.4844 13.4922 89.5156 13.5078C89.5625 13.5234 89.6094 13.5391 89.6562 13.5547C89.8594 13.5703 90.1094 13.6484 90.4062 13.7891C90.7188 13.9297 91.0156 14.1406 91.2969 14.4219C91.5938 14.7031 91.8438 15.0625 92.0469 15.5C92.25 15.9219 92.3516 16.4375 92.3516 17.0469C92.3516 17.1719 92.3438 17.3281 92.3281 17.5156C92.3125 17.6875 92.2969 17.8359 92.2812 17.9609C92.6406 17.8203 93.0156 17.6484 93.4062 17.4453C93.7969 17.2422 94.1719 17.0312 94.5312 16.8125C94.9062 16.5781 95.25 16.3438 95.5625 16.1094C95.875 15.875 96.125 15.6641 96.3125 15.4766C96.4688 15.3359 96.6016 15.2578 96.7109 15.2422C96.8203 15.2266 96.8984 15.2578 96.9453 15.3359C96.9922 15.4141 97 15.5234 96.9688 15.6641C96.9375 15.8047 96.8516 15.9609 96.7109 16.1328C96.6328 16.2266 96.4297 16.4141 96.1016 16.6953C95.7891 16.9766 95.4141 17.2812 94.9766 17.6094C94.5391 17.9375 94.0625 18.2578 93.5469 18.5703C93.0312 18.8828 92.5391 19.1172 92.0703 19.2734ZM88.1094 15.7109C88.0625 15.8516 88.0391 16 88.0391 16.1562C88.0391 16.4062 88.0547 16.6719 88.0859 16.9531C88.1172 17.2188 88.1953 17.4609 88.3203 17.6797C88.4453 17.8984 88.6406 18.0859 88.9062 18.2422C89.1875 18.3828 89.5703 18.4531 90.0547 18.4531C90.1328 18.4531 90.2109 18.4531 90.2891 18.4531C90.3672 18.4375 90.4453 18.4219 90.5234 18.4062C90.5703 18.2031 90.6094 18.0234 90.6406 17.8672C90.6875 17.6953 90.7109 17.5469 90.7109 17.4219C90.7422 17.125 90.7422 16.8203 90.7109 16.5078C90.6797 16.1953 90.6172 15.9141 90.5234 15.6641C90.4453 15.3984 90.3359 15.1875 90.1953 15.0312C90.0703 14.8594 89.9141 14.7734 89.7266 14.7734C89.4297 14.7734 89.1406 14.8594 88.8594 15.0312C88.5938 15.1875 88.3438 15.4141 88.1094 15.7109ZM86.6094 19.8359C86.6094 20.1172 86.625 20.3984 86.6562 20.6797C86.6875 20.9453 86.75 21.1875 86.8438 21.4062C86.9375 21.6094 87.0625 21.7812 87.2188 21.9219C87.375 22.0469 87.5781 22.1094 87.8281 22.1094C88.1094 22.1094 88.3672 22.0469 88.6016 21.9219C88.8359 21.7812 89.0469 21.6094 89.2344 21.4062C89.4219 21.1875 89.5859 20.9453 89.7266 20.6797C89.8828 20.3984 90.0156 20.1094 90.125 19.8125C90.0156 19.8281 89.9062 19.8438 89.7969 19.8594C89.7031 19.8594 89.5938 19.8594 89.4688 19.8594C88.875 19.8594 88.3594 19.6875 87.9219 19.3438C87.5 18.9844 87.1719 18.5312 86.9375 17.9844C86.8438 18.3125 86.7656 18.6328 86.7031 18.9453C86.6406 19.2578 86.6094 19.5547 86.6094 19.8359ZM110.281 14.75C110.609 14.0938 110.938 13.4453 111.266 12.8047C111.594 12.1484 111.891 11.5391 112.156 10.9766C112.422 10.4141 112.648 9.91406 112.836 9.47656C113.023 9.02344 113.133 8.66406 113.164 8.39844C113.195 8.11719 113.172 7.875 113.094 7.67188C113.016 7.46875 112.883 7.30469 112.695 7.17969C112.523 7.05469 112.312 6.96094 112.062 6.89844C111.828 6.82031 111.562 6.77344 111.266 6.75781C110.75 6.72656 110.133 6.74219 109.414 6.80469C108.711 6.85156 108.031 6.95313 107.375 7.10938C106.719 7.25 106.148 7.45312 105.664 7.71875C105.195 7.98438 104.945 8.3125 104.914 8.70312C104.898 8.92188 104.938 9.11719 105.031 9.28906C105.109 9.42969 105.25 9.5625 105.453 9.6875C105.672 9.8125 105.992 9.85938 106.414 9.82812C106.492 9.82812 106.586 9.82031 106.695 9.80469C106.789 9.78906 106.906 9.77344 107.047 9.75781C107.188 9.72656 107.352 9.6875 107.539 9.64062L106.391 11.1875C106.172 11.5 105.938 11.6875 105.688 11.75C105.438 11.8125 105.211 11.8281 105.008 11.7969C104.898 11.7812 104.68 11.7266 104.352 11.6328C104.039 11.5391 103.719 11.3984 103.391 11.2109C103.078 11.0234 102.805 10.7734 102.57 10.4609C102.336 10.1328 102.242 9.72656 102.289 9.24219C102.352 8.67969 102.594 8.16406 103.016 7.69531C103.438 7.21094 104.023 6.79687 104.773 6.45312C105.539 6.10938 106.445 5.84375 107.492 5.65625C108.555 5.46875 109.75 5.375 111.078 5.375C112.078 5.375 112.875 5.48437 113.469 5.70312C114.062 5.90625 114.492 6.17969 114.758 6.52344C115.039 6.85156 115.172 7.24219 115.156 7.69531C115.156 8.13281 115.062 8.58594 114.875 9.05469C114.781 9.27344 114.641 9.57812 114.453 9.96875C114.281 10.3438 114.07 10.7891 113.82 11.3047C113.57 11.8047 113.305 12.3594 113.023 12.9688C112.742 13.5781 112.461 14.2109 112.18 14.8672C112.602 14.8984 112.984 14.9375 113.328 14.9844C113.688 15.0312 113.969 15.0703 114.172 15.1016C114.406 15.1641 114.484 15.2656 114.406 15.4062C114.266 15.6875 114.125 15.8984 113.984 16.0391C113.859 16.1797 113.719 16.2812 113.562 16.3438C113.406 16.3906 113.234 16.4141 113.047 16.4141C112.859 16.3984 112.648 16.3828 112.414 16.3672C112.273 16.3672 112.133 16.3672 111.992 16.3672C111.852 16.3516 111.703 16.3359 111.547 16.3203C111.25 17.0234 110.961 17.7188 110.68 18.4062C110.414 19.0938 110.164 19.75 109.93 20.375C109.711 20.9844 109.516 21.5469 109.344 22.0625C109.172 22.5781 109.055 23.0078 108.992 23.3516C108.898 23.8359 108.828 24.2891 108.781 24.7109C108.75 25.0703 108.734 25.4453 108.734 25.8359C108.734 26.2266 108.797 26.5391 108.922 26.7734C108.594 26.8672 108.305 26.9453 108.055 27.0078C107.82 27.0703 107.617 27.1172 107.445 27.1484C107.258 27.1953 107.102 27.2344 106.977 27.2656C106.539 27.375 106.227 27.3594 106.039 27.2188C105.867 27.0938 105.82 26.7812 105.898 26.2812C105.93 25.9375 105.977 25.5469 106.039 25.1094C106.117 24.6875 106.227 24.2031 106.367 23.6562C106.523 23.125 106.719 22.5312 106.953 21.875C107.203 21.2031 107.516 20.4609 107.891 19.6484C108.109 19.1797 108.359 18.6641 108.641 18.1016C108.922 17.5234 109.219 16.9062 109.531 16.25C108.844 16.25 108.102 16.2969 107.305 16.3906C106.867 16.4531 106.438 16.5234 106.016 16.6016C105.656 16.6797 105.266 16.7734 104.844 16.8828C104.438 16.9766 104.055 17.0859 103.695 17.2109C103.648 17.0859 103.617 16.9609 103.602 16.8359C103.602 16.7109 103.609 16.5938 103.625 16.4844C103.641 16.375 103.664 16.2656 103.695 16.1562C103.727 16.0469 103.773 15.9375 103.836 15.8281C103.93 15.6406 104.078 15.4062 104.281 15.125C105.016 15.0312 105.719 14.9609 106.391 14.9141C107.062 14.8672 107.656 14.8281 108.172 14.7969C108.781 14.7656 109.352 14.75 109.883 14.75C109.961 14.7344 110.023 14.7344 110.07 14.75C110.133 14.75 110.203 14.75 110.281 14.75ZM122.305 19.2734C122.148 19.8672 121.938 20.4219 121.672 20.9375C121.406 21.4531 121.086 21.8984 120.711 22.2734C120.352 22.6484 119.938 22.9375 119.469 23.1406C119.016 23.3594 118.516 23.4688 117.969 23.4688C117.328 23.4688 116.82 23.3281 116.445 23.0469C116.086 22.7812 115.812 22.4453 115.625 22.0391C115.453 21.6328 115.352 21.1875 115.32 20.7031C115.273 20.2188 115.25 19.7656 115.25 19.3438C115.25 19.0469 115.289 18.7188 115.367 18.3594C115.43 18 115.523 17.6328 115.648 17.2578C115.773 16.8828 115.93 16.5078 116.117 16.1328C116.32 15.7578 116.555 15.4141 116.82 15.1016C116.914 14.8359 117.055 14.6016 117.242 14.3984C117.445 14.1953 117.672 14.0312 117.922 13.9062C118.188 13.7656 118.469 13.6641 118.766 13.6016C119.062 13.5234 119.352 13.4844 119.633 13.4844C119.68 13.4844 119.719 13.4922 119.75 13.5078C119.797 13.5234 119.844 13.5391 119.891 13.5547C120.094 13.5703 120.344 13.6484 120.641 13.7891C120.953 13.9297 121.25 14.1406 121.531 14.4219C121.828 14.7031 122.078 15.0625 122.281 15.5C122.484 15.9219 122.586 16.4375 122.586 17.0469C122.586 17.1719 122.578 17.3281 122.562 17.5156C122.547 17.6875 122.531 17.8359 122.516 17.9609C122.875 17.8203 123.25 17.6484 123.641 17.4453C124.031 17.2422 124.406 17.0312 124.766 16.8125C125.141 16.5781 125.484 16.3438 125.797 16.1094C126.109 15.875 126.359 15.6641 126.547 15.4766C126.703 15.3359 126.836 15.2578 126.945 15.2422C127.055 15.2266 127.133 15.2578 127.18 15.3359C127.227 15.4141 127.234 15.5234 127.203 15.6641C127.172 15.8047 127.086 15.9609 126.945 16.1328C126.867 16.2266 126.664 16.4141 126.336 16.6953C126.023 16.9766 125.648 17.2812 125.211 17.6094C124.773 17.9375 124.297 18.2578 123.781 18.5703C123.266 18.8828 122.773 19.1172 122.305 19.2734ZM118.344 15.7109C118.297 15.8516 118.273 16 118.273 16.1562C118.273 16.4062 118.289 16.6719 118.32 16.9531C118.352 17.2188 118.43 17.4609 118.555 17.6797C118.68 17.8984 118.875 18.0859 119.141 18.2422C119.422 18.3828 119.805 18.4531 120.289 18.4531C120.367 18.4531 120.445 18.4531 120.523 18.4531C120.602 18.4375 120.68 18.4219 120.758 18.4062C120.805 18.2031 120.844 18.0234 120.875 17.8672C120.922 17.6953 120.945 17.5469 120.945 17.4219C120.977 17.125 120.977 16.8203 120.945 16.5078C120.914 16.1953 120.852 15.9141 120.758 15.6641C120.68 15.3984 120.57 15.1875 120.43 15.0312C120.305 14.8594 120.148 14.7734 119.961 14.7734C119.664 14.7734 119.375 14.8594 119.094 15.0312C118.828 15.1875 118.578 15.4141 118.344 15.7109ZM116.844 19.8359C116.844 20.1172 116.859 20.3984 116.891 20.6797C116.922 20.9453 116.984 21.1875 117.078 21.4062C117.172 21.6094 117.297 21.7812 117.453 21.9219C117.609 22.0469 117.812 22.1094 118.062 22.1094C118.344 22.1094 118.602 22.0469 118.836 21.9219C119.07 21.7812 119.281 21.6094 119.469 21.4062C119.656 21.1875 119.82 20.9453 119.961 20.6797C120.117 20.3984 120.25 20.1094 120.359 19.8125C120.25 19.8281 120.141 19.8438 120.031 19.8594C119.938 19.8594 119.828 19.8594 119.703 19.8594C119.109 19.8594 118.594 19.6875 118.156 19.3438C117.734 18.9844 117.406 18.5312 117.172 17.9844C117.078 18.3125 117 18.6328 116.938 18.9453C116.875 19.2578 116.844 19.5547 116.844 19.8359ZM131.75 19.2734C131.594 19.8672 131.383 20.4219 131.117 20.9375C130.852 21.4531 130.531 21.8984 130.156 22.2734C129.797 22.6484 129.383 22.9375 128.914 23.1406C128.461 23.3594 127.961 23.4688 127.414 23.4688C126.773 23.4688 126.266 23.3281 125.891 23.0469C125.531 22.7812 125.258 22.4453 125.07 22.0391C124.898 21.6328 124.797 21.1875 124.766 20.7031C124.719 20.2188 124.695 19.7656 124.695 19.3438C124.695 19.0469 124.734 18.7188 124.812 18.3594C124.875 18 124.969 17.6328 125.094 17.2578C125.219 16.8828 125.375 16.5078 125.562 16.1328C125.766 15.7578 126 15.4141 126.266 15.1016C126.359 14.8359 126.5 14.6016 126.688 14.3984C126.891 14.1953 127.117 14.0312 127.367 13.9062C127.633 13.7656 127.914 13.6641 128.211 13.6016C128.508 13.5234 128.797 13.4844 129.078 13.4844C129.125 13.4844 129.164 13.4922 129.195 13.5078C129.242 13.5234 129.289 13.5391 129.336 13.5547C129.539 13.5703 129.789 13.6484 130.086 13.7891C130.398 13.9297 130.695 14.1406 130.977 14.4219C131.273 14.7031 131.523 15.0625 131.727 15.5C131.93 15.9219 132.031 16.4375 132.031 17.0469C132.031 17.1719 132.023 17.3281 132.008 17.5156C131.992 17.6875 131.977 17.8359 131.961 17.9609C132.32 17.8203 132.695 17.6484 133.086 17.4453C133.477 17.2422 133.852 17.0312 134.211 16.8125C134.586 16.5781 134.93 16.3438 135.242 16.1094C135.555 15.875 135.805 15.6641 135.992 15.4766C136.148 15.3359 136.281 15.2578 136.391 15.2422C136.5 15.2266 136.578 15.2578 136.625 15.3359C136.672 15.4141 136.68 15.5234 136.648 15.6641C136.617 15.8047 136.531 15.9609 136.391 16.1328C136.312 16.2266 136.109 16.4141 135.781 16.6953C135.469 16.9766 135.094 17.2812 134.656 17.6094C134.219 17.9375 133.742 18.2578 133.227 18.5703C132.711 18.8828 132.219 19.1172 131.75 19.2734ZM127.789 15.7109C127.742 15.8516 127.719 16 127.719 16.1562C127.719 16.4062 127.734 16.6719 127.766 16.9531C127.797 17.2188 127.875 17.4609 128 17.6797C128.125 17.8984 128.32 18.0859 128.586 18.2422C128.867 18.3828 129.25 18.4531 129.734 18.4531C129.812 18.4531 129.891 18.4531 129.969 18.4531C130.047 18.4375 130.125 18.4219 130.203 18.4062C130.25 18.2031 130.289 18.0234 130.32 17.8672C130.367 17.6953 130.391 17.5469 130.391 17.4219C130.422 17.125 130.422 16.8203 130.391 16.5078C130.359 16.1953 130.297 15.9141 130.203 15.6641C130.125 15.3984 130.016 15.1875 129.875 15.0312C129.75 14.8594 129.594 14.7734 129.406 14.7734C129.109 14.7734 128.82 14.8594 128.539 15.0312C128.273 15.1875 128.023 15.4141 127.789 15.7109ZM126.289 19.8359C126.289 20.1172 126.305 20.3984 126.336 20.6797C126.367 20.9453 126.43 21.1875 126.523 21.4062C126.617 21.6094 126.742 21.7812 126.898 21.9219C127.055 22.0469 127.258 22.1094 127.508 22.1094C127.789 22.1094 128.047 22.0469 128.281 21.9219C128.516 21.7812 128.727 21.6094 128.914 21.4062C129.102 21.1875 129.266 20.9453 129.406 20.6797C129.562 20.3984 129.695 20.1094 129.805 19.8125C129.695 19.8281 129.586 19.8438 129.477 19.8594C129.383 19.8594 129.273 19.8594 129.148 19.8594C128.555 19.8594 128.039 19.6875 127.602 19.3438C127.18 18.9844 126.852 18.5312 126.617 17.9844C126.523 18.3125 126.445 18.6328 126.383 18.9453C126.32 19.2578 126.289 19.5547 126.289 19.8359ZM141.195 19.2734C141.039 19.8672 140.828 20.4219 140.562 20.9375C140.297 21.4531 139.977 21.8984 139.602 22.2734C139.242 22.6484 138.828 22.9375 138.359 23.1406C137.906 23.3594 137.406 23.4688 136.859 23.4688C136.219 23.4688 135.711 23.3281 135.336 23.0469C134.977 22.7812 134.703 22.4453 134.516 22.0391C134.344 21.6328 134.242 21.1875 134.211 20.7031C134.164 20.2188 134.141 19.7656 134.141 19.3438C134.141 19.0469 134.18 18.7188 134.258 18.3594C134.32 18 134.414 17.6328 134.539 17.2578C134.664 16.8828 134.82 16.5078 135.008 16.1328C135.211 15.7578 135.445 15.4141 135.711 15.1016C135.805 14.8359 135.945 14.6016 136.133 14.3984C136.336 14.1953 136.562 14.0312 136.812 13.9062C137.078 13.7656 137.359 13.6641 137.656 13.6016C137.953 13.5234 138.242 13.4844 138.523 13.4844C138.57 13.4844 138.609 13.4922 138.641 13.5078C138.688 13.5234 138.734 13.5391 138.781 13.5547C138.984 13.5703 139.234 13.6484 139.531 13.7891C139.844 13.9297 140.141 14.1406 140.422 14.4219C140.719 14.7031 140.969 15.0625 141.172 15.5C141.375 15.9219 141.477 16.4375 141.477 17.0469C141.477 17.1719 141.469 17.3281 141.453 17.5156C141.438 17.6875 141.422 17.8359 141.406 17.9609C141.766 17.8203 142.141 17.6484 142.531 17.4453C142.922 17.2422 143.297 17.0312 143.656 16.8125C144.031 16.5781 144.375 16.3438 144.688 16.1094C145 15.875 145.25 15.6641 145.438 15.4766C145.594 15.3359 145.727 15.2578 145.836 15.2422C145.945 15.2266 146.023 15.2578 146.07 15.3359C146.117 15.4141 146.125 15.5234 146.094 15.6641C146.062 15.8047 145.977 15.9609 145.836 16.1328C145.758 16.2266 145.555 16.4141 145.227 16.6953C144.914 16.9766 144.539 17.2812 144.102 17.6094C143.664 17.9375 143.188 18.2578 142.672 18.5703C142.156 18.8828 141.664 19.1172 141.195 19.2734ZM137.234 15.7109C137.188 15.8516 137.164 16 137.164 16.1562C137.164 16.4062 137.18 16.6719 137.211 16.9531C137.242 17.2188 137.32 17.4609 137.445 17.6797C137.57 17.8984 137.766 18.0859 138.031 18.2422C138.312 18.3828 138.695 18.4531 139.18 18.4531C139.258 18.4531 139.336 18.4531 139.414 18.4531C139.492 18.4375 139.57 18.4219 139.648 18.4062C139.695 18.2031 139.734 18.0234 139.766 17.8672C139.812 17.6953 139.836 17.5469 139.836 17.4219C139.867 17.125 139.867 16.8203 139.836 16.5078C139.805 16.1953 139.742 15.9141 139.648 15.6641C139.57 15.3984 139.461 15.1875 139.32 15.0312C139.195 14.8594 139.039 14.7734 138.852 14.7734C138.555 14.7734 138.266 14.8594 137.984 15.0312C137.719 15.1875 137.469 15.4141 137.234 15.7109ZM135.734 19.8359C135.734 20.1172 135.75 20.3984 135.781 20.6797C135.812 20.9453 135.875 21.1875 135.969 21.4062C136.062 21.6094 136.188 21.7812 136.344 21.9219C136.5 22.0469 136.703 22.1094 136.953 22.1094C137.234 22.1094 137.492 22.0469 137.727 21.9219C137.961 21.7812 138.172 21.6094 138.359 21.4062C138.547 21.1875 138.711 20.9453 138.852 20.6797C139.008 20.3984 139.141 20.1094 139.25 19.8125C139.141 19.8281 139.031 19.8438 138.922 19.8594C138.828 19.8594 138.719 19.8594 138.594 19.8594C138 19.8594 137.484 19.6875 137.047 19.3438C136.625 18.9844 136.297 18.5312 136.062 17.9844C135.969 18.3125 135.891 18.6328 135.828 18.9453C135.766 19.2578 135.734 19.5547 135.734 19.8359ZM150.641 19.2734C150.484 19.8672 150.273 20.4219 150.008 20.9375C149.742 21.4531 149.422 21.8984 149.047 22.2734C148.688 22.6484 148.273 22.9375 147.805 23.1406C147.352 23.3594 146.852 23.4688 146.305 23.4688C145.664 23.4688 145.156 23.3281 144.781 23.0469C144.422 22.7812 144.148 22.4453 143.961 22.0391C143.789 21.6328 143.688 21.1875 143.656 20.7031C143.609 20.2188 143.586 19.7656 143.586 19.3438C143.586 19.0469 143.625 18.7188 143.703 18.3594C143.766 18 143.859 17.6328 143.984 17.2578C144.109 16.8828 144.266 16.5078 144.453 16.1328C144.656 15.7578 144.891 15.4141 145.156 15.1016C145.25 14.8359 145.391 14.6016 145.578 14.3984C145.781 14.1953 146.008 14.0312 146.258 13.9062C146.523 13.7656 146.805 13.6641 147.102 13.6016C147.398 13.5234 147.688 13.4844 147.969 13.4844C148.016 13.4844 148.055 13.4922 148.086 13.5078C148.133 13.5234 148.18 13.5391 148.227 13.5547C148.43 13.5703 148.68 13.6484 148.977 13.7891C149.289 13.9297 149.586 14.1406 149.867 14.4219C150.164 14.7031 150.414 15.0625 150.617 15.5C150.82 15.9219 150.922 16.4375 150.922 17.0469C150.922 17.1719 150.914 17.3281 150.898 17.5156C150.883 17.6875 150.867 17.8359 150.852 17.9609C151.211 17.8203 151.586 17.6484 151.977 17.4453C152.367 17.2422 152.742 17.0312 153.102 16.8125C153.477 16.5781 153.82 16.3438 154.133 16.1094C154.445 15.875 154.695 15.6641 154.883 15.4766C155.039 15.3359 155.172 15.2578 155.281 15.2422C155.391 15.2266 155.469 15.2578 155.516 15.3359C155.562 15.4141 155.57 15.5234 155.539 15.6641C155.508 15.8047 155.422 15.9609 155.281 16.1328C155.203 16.2266 155 16.4141 154.672 16.6953C154.359 16.9766 153.984 17.2812 153.547 17.6094C153.109 17.9375 152.633 18.2578 152.117 18.5703C151.602 18.8828 151.109 19.1172 150.641 19.2734ZM146.68 15.7109C146.633 15.8516 146.609 16 146.609 16.1562C146.609 16.4062 146.625 16.6719 146.656 16.9531C146.688 17.2188 146.766 17.4609 146.891 17.6797C147.016 17.8984 147.211 18.0859 147.477 18.2422C147.758 18.3828 148.141 18.4531 148.625 18.4531C148.703 18.4531 148.781 18.4531 148.859 18.4531C148.938 18.4375 149.016 18.4219 149.094 18.4062C149.141 18.2031 149.18 18.0234 149.211 17.8672C149.258 17.6953 149.281 17.5469 149.281 17.4219C149.312 17.125 149.312 16.8203 149.281 16.5078C149.25 16.1953 149.188 15.9141 149.094 15.6641C149.016 15.3984 148.906 15.1875 148.766 15.0312C148.641 14.8594 148.484 14.7734 148.297 14.7734C148 14.7734 147.711 14.8594 147.43 15.0312C147.164 15.1875 146.914 15.4141 146.68 15.7109ZM145.18 19.8359C145.18 20.1172 145.195 20.3984 145.227 20.6797C145.258 20.9453 145.32 21.1875 145.414 21.4062C145.508 21.6094 145.633 21.7812 145.789 21.9219C145.945 22.0469 146.148 22.1094 146.398 22.1094C146.68 22.1094 146.938 22.0469 147.172 21.9219C147.406 21.7812 147.617 21.6094 147.805 21.4062C147.992 21.1875 148.156 20.9453 148.297 20.6797C148.453 20.3984 148.586 20.1094 148.695 19.8125C148.586 19.8281 148.477 19.8438 148.367 19.8594C148.273 19.8594 148.164 19.8594 148.039 19.8594C147.445 19.8594 146.93 19.6875 146.492 19.3438C146.07 18.9844 145.742 18.5312 145.508 17.9844C145.414 18.3125 145.336 18.6328 145.273 18.9453C145.211 19.2578 145.18 19.5547 145.18 19.8359ZM160.602 18.5234C160.523 19.0078 160.445 19.4688 160.367 19.9062C160.305 20.3438 160.266 20.6953 160.25 20.9609C160.234 21.3516 160.305 21.6328 160.461 21.8047C160.617 21.9766 160.789 22.0625 160.977 22.0625C161.195 22.0625 161.461 21.9531 161.773 21.7344C162.102 21.5156 162.445 21.2422 162.805 20.9141C163.164 20.5859 163.523 20.2266 163.883 19.8359C164.242 19.4453 164.57 19.0781 164.867 18.7344C165.18 18.375 165.438 18.0625 165.641 17.7969C165.859 17.5312 166.008 17.3594 166.086 17.2812C166.18 17.1875 166.273 17.1328 166.367 17.1172C166.477 17.1016 166.562 17.1172 166.625 17.1641C166.688 17.2109 166.719 17.2969 166.719 17.4219C166.719 17.5469 166.656 17.7031 166.531 17.8906C166.344 18.1875 166.102 18.5391 165.805 18.9453C165.508 19.3359 165.18 19.7422 164.82 20.1641C164.461 20.5859 164.078 21 163.672 21.4062C163.281 21.8125 162.883 22.1719 162.477 22.4844C162.086 22.7969 161.703 23.0469 161.328 23.2344C160.969 23.4375 160.641 23.5391 160.344 23.5391C160.125 23.5391 159.914 23.4766 159.711 23.3516C159.523 23.2266 159.352 23.0625 159.195 22.8594C159.039 22.6562 158.914 22.4297 158.82 22.1797C158.742 21.9297 158.711 21.6797 158.727 21.4297C158.742 21.3203 158.766 21.1328 158.797 20.8672C158.141 21.6016 157.477 22.1875 156.805 22.625C156.148 23.0469 155.516 23.2578 154.906 23.2578C154.688 23.2578 154.453 23.2031 154.203 23.0938C153.953 22.9844 153.727 22.8047 153.523 22.5547C153.336 22.3047 153.18 21.9766 153.055 21.5703C152.93 21.1641 152.883 20.6719 152.914 20.0938C152.961 19.1875 153.141 18.3281 153.453 17.5156C153.766 16.7031 154.156 16 154.625 15.4062C155.109 14.7969 155.648 14.3203 156.242 13.9766C156.852 13.6172 157.461 13.4375 158.07 13.4375C158.336 13.4375 158.578 13.5078 158.797 13.6484C159.016 13.7734 159.203 13.9453 159.359 14.1641C159.516 14.3672 159.641 14.5938 159.734 14.8438C159.844 15.0938 159.922 15.3281 159.969 15.5469C160.078 15.0938 160.18 14.6484 160.273 14.2109C160.367 13.7734 160.461 13.3594 160.555 12.9688C160.711 12.3906 160.875 11.7656 161.047 11.0938C161.203 10.5156 161.383 9.85156 161.586 9.10156C161.789 8.35156 162.016 7.5625 162.266 6.73438C162.422 6.60937 162.57 6.51562 162.711 6.45312C162.852 6.39063 162.984 6.34375 163.109 6.3125C163.25 6.26562 163.383 6.24219 163.508 6.24219C163.664 6.24219 163.805 6.26562 163.93 6.3125C164.055 6.34375 164.156 6.44531 164.234 6.61719C164.328 6.77344 164.391 7.01562 164.422 7.34375C164.453 7.67188 164.453 8.11719 164.422 8.67969C164.391 9.36719 164.266 10.1172 164.047 10.9297C163.844 11.7422 163.57 12.5859 163.227 13.4609C162.883 14.3203 162.484 15.1875 162.031 16.0625C161.594 16.9219 161.117 17.7422 160.602 18.5234ZM159.219 18.8281C159.281 18.5312 159.336 18.2344 159.383 17.9375C159.445 17.6406 159.516 17.3359 159.594 17.0234C159.562 17.0391 159.531 17.0547 159.5 17.0703C159.484 17.0859 159.461 17.1016 159.43 17.1172C159.258 17.1953 159.141 17.1953 159.078 17.1172C159.016 17.0234 158.984 16.8828 158.984 16.6953C158.984 16.6016 158.977 16.4375 158.961 16.2031C158.945 15.9531 158.898 15.7031 158.82 15.4531C158.758 15.1875 158.656 14.9609 158.516 14.7734C158.375 14.5703 158.18 14.4688 157.93 14.4688C157.57 14.4688 157.203 14.6562 156.828 15.0312C156.453 15.3906 156.102 15.8359 155.773 16.3672C155.445 16.8828 155.172 17.4375 154.953 18.0312C154.734 18.625 154.609 19.1562 154.578 19.625C154.547 20.375 154.641 20.9141 154.859 21.2422C155.078 21.5703 155.375 21.7344 155.75 21.7344C156.031 21.7344 156.336 21.625 156.664 21.4062C157.008 21.1875 157.336 20.9219 157.648 20.6094C157.977 20.2969 158.273 19.9766 158.539 19.6484C158.82 19.3203 159.047 19.0469 159.219 18.8281ZM176.516 5.39844C176.672 5.36719 176.836 5.35156 177.008 5.35156C177.148 5.35156 177.297 5.36719 177.453 5.39844C177.625 5.42969 177.781 5.49219 177.922 5.58594L174.359 18.7812C174.312 18.9531 174.172 19.125 173.938 19.2969C173.703 19.4688 173.453 19.6094 173.188 19.7188C172.938 19.8125 172.711 19.8672 172.508 19.8828C172.32 19.8828 172.242 19.8047 172.273 19.6484C172.336 19.3984 172.477 18.7891 172.695 17.8203C172.789 17.3984 172.906 16.8828 173.047 16.2734C173.188 15.6484 173.352 14.8984 173.539 14.0234C173.742 13.1484 173.977 12.1328 174.242 10.9766C174.508 9.80469 174.812 8.46875 175.156 6.96875C175.172 6.85938 175.188 6.75 175.203 6.64062C175.219 6.5625 175.219 6.47656 175.203 6.38281C175.203 6.28906 175.188 6.21875 175.156 6.17188C175.281 6.03125 175.422 5.91406 175.578 5.82031C175.734 5.71094 175.883 5.625 176.023 5.5625C176.195 5.5 176.359 5.44531 176.516 5.39844ZM172.906 21.2188C173.312 21.1562 173.641 21.1953 173.891 21.3359C174.141 21.4609 174.25 21.7031 174.219 22.0625C174.203 22.2656 174.117 22.4609 173.961 22.6484C173.805 22.8203 173.617 22.9766 173.398 23.1172C173.195 23.2578 172.977 23.3672 172.742 23.4453C172.523 23.5234 172.328 23.5625 172.156 23.5625C171.828 23.5625 171.547 23.4922 171.312 23.3516C171.078 23.2109 170.977 22.9844 171.008 22.6719C171.023 22.4688 171.094 22.2891 171.219 22.1328C171.328 21.9609 171.469 21.8125 171.641 21.6875C171.828 21.5625 172.031 21.4609 172.25 21.3828C172.469 21.3047 172.688 21.25 172.906 21.2188Z" fill="#292D32"/>
</svg>
